<svg xmlns="http://www.w3.org/2000/svg" xmlns:xlink="http://www.w3.org/1999/xlink" width="120" zoomAndPan="magnify" viewBox="0 0 90 89.999999" height="120" preserveAspectRatio="xMidYMid meet" version="1.2"><defs><clipPath id="2578237575"><path d="M 77 73 L 89.25 73 L 89.25 86 L 77 86 Z M 77 73 "/></clipPath><clipPath id="ab2859eac3"><path d="M 31.5 53.949219 L 35.25 53.949219 L 35.25 58.5 L 31.5 58.5 Z M 31.5 53.949219 "/></clipPath></defs><g id="4e720a7dda"><path style=" stroke:none;fill-rule:nonzero;fill:#c0392b;fill-opacity:1;" d="M 36.332031 67.414062 C 36.625 66.8125 36.792969 66.136719 36.8125 65.464844 C 36.84375 64.464844 36.546875 63.472656 35.855469 62.757812 C 34.828125 61.699219 33.425781 61.761719 32.082031 61.996094 C 30.570312 62.257812 29.121094 62.558594 27.574219 62.566406 C 26.25 62.574219 24.601562 62.621094 23.523438 61.722656 C 23.238281 61.488281 23.300781 61.222656 23.582031 61.042969 C 24.609375 60.390625 25.875 60.203125 27.054688 60.027344 C 28.316406 59.839844 29.597656 59.765625 30.875 59.796875 C 32.578125 59.84375 34.308594 60.121094 35.632812 61.289062 C 36.058594 61.664062 36.429688 62.121094 36.9375 62.378906 C 37.257812 62.539062 37.660156 62.601562 38.003906 62.484375 C 38.445312 62.335938 38.542969 62.039062 38.648438 61.628906 C 38.984375 60.3125 39.046875 58.9375 38.828125 57.59375 C 38.265625 54.082031 36.101562 51.113281 32.964844 49.464844 C 20.183594 42.746094 14.21875 58.074219 8.460938 66.402344 C 8.183594 66.800781 7.90625 67.234375 7.6875 67.6875 L 18.324219 76.644531 C 22.730469 74.089844 28.292969 73.414062 32.789062 70.816406 C 34.230469 69.984375 35.597656 68.902344 36.332031 67.414062 "/><path style=" stroke:none;fill-rule:nonzero;fill:#d35400;fill-opacity:1;" d="M 6.707031 68.855469 L 3.777344 72.335938 C 3.371094 72.816406 3.433594 73.535156 3.914062 73.941406 L 12.808594 81.433594 C 13.289062 81.839844 14.007812 81.777344 14.410156 81.296875 L 17.699219 77.386719 L 7.066406 68.425781 L 6.707031 68.855469 "/><path style=" stroke:none;fill-rule:nonzero;fill:#c0392b;fill-opacity:1;" d="M 1.925781 75.925781 L 0.40625 77.734375 C 0.0273438 78.183594 0.0859375 78.859375 0.535156 79.242188 L 8.164062 85.667969 C 8.613281 86.046875 9.289062 85.992188 9.671875 85.539062 L 12.371094 82.332031 L 3.105469 74.523438 L 1.925781 75.925781 "/><g clip-rule="nonzero" clip-path="url(#2578237575)"><path style=" stroke:none;fill-rule:nonzero;fill:#c0392b;fill-opacity:1;" d="M 88.796875 76.792969 L 85.8125 73.851562 L 77.316406 82.488281 L 80.300781 85.429688 C 80.722656 85.847656 81.402344 85.839844 81.816406 85.417969 L 88.808594 78.308594 C 89.222656 77.886719 89.21875 77.207031 88.796875 76.792969 "/></g><path style=" stroke:none;fill-rule:nonzero;fill:#c0392b;fill-opacity:1;" d="M 80.5 67.585938 C 80.503906 67.582031 80.574219 67.515625 80.574219 67.515625 C 77.855469 63.195312 75.355469 59.457031 72.664062 55.1875 C 71.03125 52.597656 68.746094 50.4375 66.089844 48.921875 C 63.960938 47.703125 60.96875 46.699219 58.652344 47.957031 C 54.90625 49.992188 50.695312 53.734375 48.699219 57.519531 C 47.824219 59.167969 47.210938 61.246094 47.882812 63.070312 C 48.445312 64.605469 49.808594 66.128906 51.554688 66.15625 C 51.640625 66.15625 51.734375 66.160156 51.824219 66.167969 C 52.085938 66.183594 52.355469 66.226562 52.625 66.28125 C 54.144531 66.621094 55.464844 67.652344 56.171875 69.039062 C 56.195312 69.085938 56.214844 69.128906 56.234375 69.167969 C 56.285156 69.273438 56.3125 69.355469 56.339844 69.414062 C 56.359375 69.464844 56.371094 69.492188 56.375 69.5 C 56.371094 69.492188 56.355469 69.464844 56.328125 69.417969 C 56.296875 69.367188 56.257812 69.285156 56.191406 69.191406 C 56.113281 69.0625 56.003906 68.898438 55.859375 68.722656 C 55.273438 67.992188 53.015625 66.09375 52.058594 67.058594 C 51.773438 67.34375 51.910156 67.761719 51.996094 68.105469 C 52.503906 70.140625 53.574219 71.242188 55.308594 72.347656 C 57.265625 73.597656 61.800781 75.832031 65.808594 76.746094 C 67.621094 77.15625 70.820312 77.425781 70.820312 77.425781 C 70.820312 77.425781 72.964844 75.246094 73.890625 74.308594 C 76.09375 72.066406 78.296875 69.828125 80.5 67.585938 "/><path style=" stroke:none;fill-rule:nonzero;fill:#d35400;fill-opacity:1;" d="M 84.9375 71.734375 L 81.300781 68.152344 L 71.546875 78.066406 L 75.1875 81.652344 C 75.632812 82.09375 76.355469 82.085938 76.796875 81.636719 L 84.949219 73.34375 C 85.390625 72.898438 85.386719 72.175781 84.9375 71.734375 "/><path style=" stroke:none;fill-rule:nonzero;fill:#2c3e50;fill-opacity:1;" d="M 32.007812 21.382812 C 32.015625 21.382812 32.027344 21.378906 32.035156 21.378906 C 32.226562 21.328125 32.394531 21.210938 32.507812 21.046875 L 44.921875 2.78125 C 45.066406 2.566406 45.386719 2.566406 45.53125 2.78125 L 57.945312 21.046875 C 58.058594 21.210938 58.226562 21.328125 58.417969 21.378906 C 58.425781 21.378906 58.4375 21.382812 58.445312 21.382812 C 59.171875 21.566406 59.738281 20.757812 59.320312 20.140625 L 46.222656 0.871094 L 45.90625 0.40625 C 45.847656 0.320312 45.773438 0.246094 45.691406 0.191406 L 45.683594 0.183594 C 45.40625 -0.00390625 45.046875 -0.00390625 44.769531 0.183594 L 44.761719 0.191406 C 44.679688 0.246094 44.605469 0.320312 44.546875 0.40625 L 44.234375 0.871094 L 31.136719 20.140625 C 30.714844 20.757812 31.28125 21.566406 32.007812 21.382812 "/><path style=" stroke:none;fill-rule:nonzero;fill:#2c3e50;fill-opacity:1;" d="M 54.125 74.203125 C 52.351562 73.070312 50.605469 71.617188 49.863281 68.640625 L 49.847656 68.578125 C 49.816406 68.453125 49.765625 68.253906 49.730469 68.011719 C 47.839844 67.292969 46.453125 65.550781 45.816406 63.828125 C 44.820312 61.121094 45.777344 58.34375 46.753906 56.488281 C 48.8125 52.59375 53.070312 48.484375 57.605469 46.023438 C 58.636719 45.460938 59.808594 45.175781 61.082031 45.175781 C 62.617188 45.175781 64.09375 45.589844 65.34375 46.105469 L 65.34375 31.484375 C 65.34375 26.265625 61.117188 22.039062 55.902344 22.039062 L 34.550781 22.039062 C 29.335938 22.039062 25.109375 26.265625 25.109375 31.484375 L 25.109375 45.753906 C 25.707031 45.660156 26.316406 45.609375 26.945312 45.609375 C 29.207031 45.609375 31.578125 46.25 33.988281 47.519531 C 37.769531 49.503906 40.324219 53.050781 41 57.246094 C 41.261719 58.875 41.183594 60.578125 40.777344 62.175781 C 40.652344 62.652344 40.339844 63.886719 38.960938 64.472656 C 39.003906 64.816406 39.023438 65.167969 39.011719 65.53125 C 38.980469 66.515625 38.738281 67.5 38.304688 68.382812 C 37.480469 70.0625 36.035156 71.480469 33.890625 72.71875 C 31.433594 74.136719 28.765625 75.003906 26.1875 75.839844 C 25.824219 75.960938 25.464844 76.078125 25.109375 76.195312 L 25.109375 80.554688 C 25.109375 85.769531 29.335938 90 34.550781 90 L 55.902344 90 C 61.117188 90 65.34375 85.769531 65.34375 80.554688 L 65.34375 78.894531 C 65.335938 78.894531 65.328125 78.890625 65.320312 78.890625 C 60.972656 77.902344 56.148438 75.488281 54.125 74.203125 "/><g clip-rule="nonzero" clip-path="url(#ab2859eac3)"><path style=" stroke:none;fill-rule:nonzero;fill:#c0392b;fill-opacity:1;" d="M 31.5 53.949219 L 35.25 53.949219 L 35.25 58.507812 L 31.5 58.507812 Z M 31.5 53.949219 "/></g></g></svg>