<?xml version="1.0" standalone="no"?>
<!DOCTYPE svg PUBLIC "-//W3C//DTD SVG 20010904//EN"
 "http://www.w3.org/TR/2001/REC-SVG-20010904/DTD/svg10.dtd">
<svg version="1.0" xmlns="http://www.w3.org/2000/svg"
 width="280.000000pt" height="562.000000pt" viewBox="0 0 280.000000 562.000000"
 preserveAspectRatio="xMidYMid meet">

<g transform="translate(0.000000,562.000000) scale(0.100000,-0.100000)"
fill="#000000" stroke="none">
<path d="M310 5610 c-18 -12 -2 -12 25 0 13 6 15 9 5 9 -8 0 -22 -4 -30 -9z"/>
<path d="M400 5609 c-160 -27 -294 -154 -329 -311 -6 -25 -13 -89 -17 -144 -4
-54 -12 -103 -18 -107 -8 -6 -7 -10 2 -14 9 -4 12 -458 12 -2224 0 -1478 -3
-2218 -10 -2214 -7 4 -10 437 -10 1267 0 694 -2 1259 -5 1256 -3 -3 -5 -569
-4 -1259 1 -690 2 -1270 1 -1289 0 -34 0 -34 10 -10 9 21 13 7 23 -90 7 -63
19 -134 27 -157 36 -102 104 -181 195 -226 60 -30 84 -36 203 -52 84 -11 89
-13 40 -14 -142 -3 -255 37 -348 122 -51 49 -60 54 -38 25 38 -50 135 -114
204 -134 95 -28 201 -31 1007 -33 787 -1 967 5 1062 34 65 19 167 88 201 135
23 32 21 31 -19 -9 -57 -57 -101 -85 -174 -113 l-60 -23 -885 0 -885 -1 870 6
c950 7 912 4 1024 66 133 72 209 227 211 429 0 66 16 66 23 0 3 -29 4 -24 5
20 3 914 1 4480 -3 4483 -3 3 -5 -992 -5 -2211 0 -1466 -3 -2218 -10 -2222 -7
-4 -10 737 -10 2215 0 1961 2 2223 15 2236 9 9 14 31 13 52 l-1 37 -4 -37 c-6
-52 -23 -48 -23 5 0 77 -20 207 -41 263 -45 119 -179 222 -319 244 -82 12
-1852 12 -1930 -1z"/>
<path d="M2405 5610 c27 -12 43 -12 25 0 -8 5 -22 9 -30 9 -10 0 -8 -3 5 -9z"/>
<path d="M225 5566 c-56 -38 -94 -77 -119 -121 -17 -30 -17 -30 1 -5 45 60 72
86 127 122 32 21 55 38 50 38 -5 0 -32 -15 -59 -34z"/>
<path d="M2507 5561 c67 -43 112 -94 149 -166 13 -27 22 -39 18 -25 -9 36 -58
110 -96 146 -37 35 -108 84 -122 84 -5 0 18 -17 51 -39z"/>
<path d="M66 5375 c-9 -26 -7 -32 5 -12 6 10 9 21 6 23 -2 3 -7 -2 -11 -11z"/>
<path d="M41 5290 c-6 -28 -10 -74 -10 -103 2 -47 3 -45 9 23 4 41 11 87 15
103 4 15 5 27 2 27 -3 0 -10 -23 -16 -50z"/>
<path d="M2687 5305 c3 -22 7 -42 9 -44 8 -9 2 45 -6 64 -7 14 -8 8 -3 -20z"/>
<path d="M2703 5200 c0 -30 2 -43 4 -27 2 15 2 39 0 55 -2 15 -4 2 -4 -28z"/>
<path d="M21 5074 c0 -11 3 -14 6 -6 3 7 2 16 -1 19 -3 4 -6 -2 -5 -13z"/>
<path d="M24 4740 c0 -157 2 -221 3 -142 2 78 2 206 0 285 -1 78 -3 14 -3
-143z"/>
<path d="M24 4140 c0 -63 1 -89 3 -57 2 31 2 83 0 115 -2 31 -3 5 -3 -58z"/>
<path d="M24 3560 c0 -58 1 -81 3 -52 2 28 2 76 0 105 -2 28 -3 5 -3 -53z"/>
<path d="M33 455 c0 -33 2 -45 4 -27 2 18 2 45 0 60 -2 15 -4 0 -4 -33z"/>
<path d="M2703 440 c0 -25 2 -35 4 -22 2 12 2 32 0 45 -2 12 -4 2 -4 -23z"/>
<path d="M42 370 c0 -14 2 -19 5 -12 2 6 2 18 0 25 -3 6 -5 1 -5 -13z"/>
<path d="M2691 375 c-1 -11 -4 -31 -6 -45 l-6 -25 11 25 c6 13 9 33 7 45 -4
19 -4 19 -6 0z"/>
<path d="M51 330 c-1 -17 45 -120 54 -120 3 0 -2 14 -11 32 -9 17 -22 47 -29
67 -8 20 -14 29 -14 21z"/>
<path d="M2652 255 c-12 -25 -20 -45 -17 -45 7 0 47 81 43 86 -3 2 -14 -17
-26 -41z"/>
</g>
</svg>
