<?xml version="1.0" standalone="no"?>
<!DOCTYPE svg PUBLIC "-//W3C//DTD SVG 20010904//EN"
 "http://www.w3.org/TR/2001/REC-SVG-20010904/DTD/svg10.dtd">
<svg version="1.0" xmlns="http://www.w3.org/2000/svg"
 width="470.000000pt" height="562.000000pt" viewBox="0 0 470.000000 562.000000"
 preserveAspectRatio="xMidYMid meet">

<g transform="translate(0.000000,562.000000) scale(0.100000,-0.100000)"
fill="#000000" stroke="none">
<path d="M2450 5580 c-189 -24 -329 -133 -432 -337 -29 -57 -55 -103 -59 -103
-4 0 -7 -8 -7 -17 1 -10 -74 -193 -166 -408 -234 -545 -916 -2129 -1046 -2430
-59 -137 -199 -461 -310 -720 -111 -259 -207 -474 -214 -480 -6 -5 -12 -19
-13 -30 0 -11 -15 -60 -32 -109 -41 -116 -48 -186 -27 -259 33 -114 116 -181
272 -219 38 -10 294 -60 569 -113 275 -53 604 -116 731 -140 418 -81 489 -81
637 -7 113 57 191 143 266 294 34 68 61 127 61 131 0 4 128 314 284 689 260
627 480 1157 1123 2708 128 311 254 612 278 670 110 262 129 373 81 475 -42
92 -117 139 -268 171 -46 10 -86 22 -89 26 -3 5 -12 6 -21 3 -8 -3 -320 39
-694 94 -373 55 -708 102 -744 106 -36 3 -78 7 -95 9 -16 2 -55 0 -85 -4z"/>
<path d="M3986 3405 c-9 -26 -7 -32 5 -12 6 10 9 21 6 23 -2 3 -7 -2 -11 -11z"/>
<path d="M3936 3285 c-9 -26 -7 -32 5 -12 6 10 9 21 6 23 -2 3 -7 -2 -11 -11z"/>
<path d="M3881 3149 c-12 -29 -20 -54 -18 -56 2 -2 14 20 26 48 12 29 20 54
18 56 -2 2 -14 -20 -26 -48z"/>
<path d="M3655 2608 c-214 -509 -278 -668 -272 -674 2 -3 37 76 77 173 40 98
146 355 236 572 90 217 162 396 160 398 -1 2 -92 -209 -201 -469z"/>
<path d="M3325 2051 c-10 -18 17 -23 33 -7 15 15 15 16 -5 16 -12 0 -24 -4
-28 -9z"/>
<path d="M3330 1958 c-13 -26 -27 -45 -32 -42 -4 3 -5 -1 -2 -9 3 -8 -2 -22
-11 -30 -9 -9 -16 -19 -15 -22 0 -3 0 -6 -1 -7 0 -2 -2 -12 -4 -22 -2 -10 -7
-22 -12 -25 -9 -7 -101 -219 -129 -297 -17 -48 -15 -84 4 -84 10 0 39 61 95
200 19 47 58 142 87 212 28 70 50 138 48 150 -3 20 -7 16 -28 -24z"/>
<path d="M3176 1445 c-9 -26 -7 -32 5 -12 6 10 9 21 6 23 -2 3 -7 -2 -11 -11z"/>
<path d="M3087 1387 c2 -26 -2 -52 -11 -67 -33 -58 -183 -366 -227 -467 -10
-23 -41 -92 -69 -153 l-52 -111 28 -40 c15 -22 30 -42 33 -44 5 -3 321 748
368 875 13 33 12 34 -3 13 -22 -30 -44 -29 -44 1 0 13 -6 26 -14 29 -10 4 -12
-4 -9 -36z"/>
<path d="M130 647 c-1 -45 155 -230 226 -269 49 -26 162 -63 170 -56 2 3 -12
23 -31 45 -25 30 -47 44 -81 52 -112 28 -205 97 -258 191 -14 25 -26 41 -26
37z"/>
<path d="M2709 539 c0 -2 -3 -24 -5 -49 -3 -25 -10 -50 -16 -57 -6 -7 -7 -13
-3 -13 4 0 2 -6 -4 -14 -6 -7 -13 -31 -16 -52 -9 -82 -13 -96 -44 -145 -17
-27 -27 -48 -22 -45 23 14 94 121 136 204 l46 92 -20 29 c-20 27 -50 57 -52
50z"/>
<path d="M551 341 c13 -17 30 -33 38 -35 32 -10 487 -96 501 -95 25 1 -22 18
-52 18 -16 1 -28 5 -28 9 0 4 -15 9 -32 10 -18 2 -34 7 -36 12 -2 6 -10 10
-18 10 -8 0 -24 9 -35 19 -25 23 -57 33 -65 20 -3 -5 -2 -9 3 -8 12 3 60 -18
68 -30 3 -6 4 -11 0 -11 -15 0 -79 32 -89 45 -6 7 -24 16 -41 19 -30 6 -30 6
3 -6 17 -6 32 -15 32 -21 0 -13 -53 1 -66 18 -15 20 -59 35 -103 35 -21 0 -41
3 -45 7 -4 4 -18 9 -32 10 l-25 4 22 -30z m147 -15 c12 -4 22 -12 22 -17 0
-13 -40 -2 -59 16 -16 15 -6 16 37 1z"/>
<path d="M1090 260 c0 -16 65 -38 174 -59 56 -11 109 -23 119 -27 10 -3 17 -1
17 5 0 22 -54 44 -167 67 -133 27 -143 28 -143 14z"/>
<path d="M1165 194 c33 -7 67 -13 75 -12 23 1 -82 26 -110 26 -14 0 2 -6 35
-14z"/>
<path d="M1290 170 c14 -4 34 -8 45 -8 16 0 15 2 -5 8 -14 4 -34 8 -45 8 -16
0 -15 -2 5 -8z"/>
<path d="M1390 150 c14 -4 36 -8 50 -8 22 0 22 1 -5 8 -16 4 -39 8 -50 8 -16
0 -15 -2 5 -8z"/>
<path d="M1637 149 c7 -7 15 -10 18 -7 3 3 -2 9 -12 12 -14 6 -15 5 -6 -5z"/>
<path d="M1478 133 c6 -2 18 -2 25 0 6 3 1 5 -13 5 -14 0 -19 -2 -12 -5z"/>
<path d="M1538 123 c7 -3 16 -2 19 1 4 3 -2 6 -13 5 -11 0 -14 -3 -6 -6z"/>
<path d="M1797 119 c7 -7 15 -10 18 -7 3 3 -2 9 -12 12 -14 6 -15 5 -6 -5z"/>
<path d="M1578 113 c6 -2 18 -2 25 0 6 3 1 5 -13 5 -14 0 -19 -2 -12 -5z"/>
<path d="M1638 103 c7 -3 16 -2 19 1 4 3 -2 6 -13 5 -11 0 -14 -3 -6 -6z"/>
<path d="M1678 93 c6 -2 18 -2 25 0 6 3 1 5 -13 5 -14 0 -19 -2 -12 -5z"/>
<path d="M1738 83 c7 -3 16 -2 19 1 4 3 -2 6 -13 5 -11 0 -14 -3 -6 -6z"/>
<path d="M1798 73 c7 -3 16 -2 19 1 4 3 -2 6 -13 5 -11 0 -14 -3 -6 -6z"/>
<path d="M2206 71 c-4 -6 -13 -8 -20 -5 -10 4 -12 -2 -9 -20 5 -23 2 -25 -38
-29 -24 -2 3 -4 61 -5 58 -1 116 1 129 5 20 5 16 8 -29 20 -30 7 -62 21 -71
29 -11 10 -19 12 -23 5z"/>
<path d="M1838 63 c7 -3 16 -2 19 1 4 3 -2 6 -13 5 -11 0 -14 -3 -6 -6z"/>
<path d="M1898 53 c7 -3 16 -2 19 1 4 3 -2 6 -13 5 -11 0 -14 -3 -6 -6z"/>
<path d="M1948 43 c7 -3 16 -2 19 1 4 3 -2 6 -13 5 -11 0 -14 -3 -6 -6z"/>
<path d="M1998 33 c7 -3 16 -2 19 1 4 3 -2 6 -13 5 -11 0 -14 -3 -6 -6z"/>
</g>
</svg>
